<svg id="canvas" height="auto" xmlns="http://www.w3.org/2000/svg" version="1.1" xmlns:xlink="http://www.w3.org/1999/xlink" viewBox="0 0 900 512" width="auto" style="width: auto; height: auto;"><rect width="900" height="512" fill="#000000"/><g stroke-opacity="1" stroke="#7689de" transform="matrix(1,0,0,1,45.20718010109051,89.1581501155963)"><path d="M97.65625,6.620983517805172C104.80838016249274,32.63984790886849,93.94976119944519,46.24789987699907,70.77247371731652,62.79432974762287C47.59518623518784,79.34075961824666,-13.336020939885998,116.68177031801595,-41.407474892772086,105.89956274154792C-69.47892884565817,95.1173551650799,-96.18282834484798,29.793753440324423,-97.65625,-1.8989157111853103C-99.12967165515202,-33.59158486269504,-71.1673286140776,-69.01979535291517,-50.24800482368425,-84.25645216751046C-29.328681033290895,-99.49310898210575,3.2089836050794034,-108.46509587964296,27.859692742360114,-93.31885659875702C52.510401879640824,-78.17261731787109,90.50411983750726,-19.397880873258146,97.65625,6.620983517805172C104.80838016249274,32.63984790886849,93.94976119944519,46.24789987699907,70.77247371731652,62.79432974762287" fill-opacity="0.25" fill="#7689de"/></g><g stroke-opacity="1" stroke="#7689de" transform="matrix(1,0,0,1,83.24068121739938,204.29293359181077)"><path d="M141.98078459857118,12.924724502592184C145.48600479820558,31.689830453983664,101.66093113090163,55.69593161904399,69.85944619780643,64.40379001569059C38.05796126471124,73.11164841233719,-20.908842300365563,80.63047977411065,-48.82812499999997,65.17187488247178C-76.74740769963438,49.71326999083291,-101.30023463389091,-7.446200641084388,-97.65625,-28.347839334142616C-94.01226536610909,-49.249478027200844,-51.3782796966545,-56.93145621612498,-26.964217196654516,-60.23795727587759C-2.550154696654527,-63.5444583356302,20.670624700795653,-60.38062598906991,48.828124999999936,-48.18684569265828C76.98562529920422,-35.99306539624665,138.47556439893677,-5.840381448799295,141.98078459857118,12.924724502592184C145.48600479820558,31.689830453983664,101.66093113090163,55.69593161904399,69.85944619780643,64.40379001569059" fill-opacity="0.25" fill="#7689de"/></g><g stroke-opacity="1" stroke="#7689de" transform="matrix(1,0,0,1,47.66244898072862,350.62963176463364)"><path d="M74.25132738695196,22.594106112856018C72.10161722356773,46.80394035116713,82.40595125620244,71.29195536121344,60.21671247030509,84.45217899858068C38.02747368440774,97.61240263594792,-31.47556724057339,119.34272308369093,-58.88410532843215,101.55544793705945C-86.2926434162909,83.76817279042798,-103.78265818768719,1.8704822881596463,-104.23451605684745,-22.27147188120816C-104.68637392600772,-46.413426050575964,-91.15350079463674,-36.87371798746775,-61.595252543393755,-43.29627707914739C-32.03700429215077,-49.718836170827025,50.473876795552854,-71.78855696328655,73.11497345061048,-60.806826431285984C95.7560701056681,-49.825095899285415,76.40103755033618,-1.6157281254550888,74.25132738695196,22.594106112856018C72.10161722356773,46.80394035116713,82.40595125620244,71.29195536121344,60.21671247030509,84.45217899858068" fill-opacity="0.25" fill="#7689de"/></g><g stroke-opacity="1" stroke="#7689de" transform="matrix(1,0,0,1,71.38121601078932,466.72278784870446)"><path d="M91.69093377386471,-19.857778729395562C86.19946495310978,12.497878137263598,33.64960846529334,94.62713573216654,15.879312075470343,111.98001984981575C-1.8909843143526555,129.33290396746497,7.342983428494389,105.32595306470853,-14.930844565073286,84.25952597649973C-37.204672558640965,63.19309888829093,-112.1140716346511,13.720177206366948,-117.76365588593569,-14.418542679437017C-123.41324013722028,-42.55726256524098,-76.59364688710345,-73.2835635598737,-48.828350072780836,-84.57279333832406C-21.06305325845823,-95.86202311677442,25.408244358892343,-92.93975711829395,48.828124999999936,-82.1539213501392C72.24800564110753,-71.36808558198445,97.18240259461965,-52.21343559605472,91.69093377386471,-19.857778729395562C86.19946495310978,12.497878137263598,33.64960846529334,94.62713573216654,15.879312075470343,111.98001984981575" fill-opacity="0.25" fill="#7689de"/></g><g stroke-opacity="1" stroke="#7689de" transform="matrix(1,0,0,1,194.2327453943783,32.04897689338152)"><path d="M102.18780280195438,0.0930439068768365C99.32687501049175,37.3174269158671,58.45924400839637,75.29233219773626,31.70781175734479,97.46400622106944C4.956379506293207,119.63568024440262,-39.39689215016793,151.56871578345107,-58.32079070435511,133.12308804687592C-77.2446892585423,114.67746031030076,-83.37365234197512,19.012469415263617,-81.83557956777832,-13.209760198381503C-80.29750679358153,-45.43198981202662,-70.87718040482419,-41.43153436257971,-49.09235405917437,-60.21028963499482C-27.30752771352455,-78.98904490740993,23.66001902926579,-135.93284742318409,48.87337850612058,-125.88229183287214C74.08673798297536,-115.8317362425602,105.048730593417,-37.13133910211343,102.18780280195438,0.0930439068768365C99.32687501049175,37.3174269158671,58.45924400839637,75.29233219773626,31.70781175734479,97.46400622106944" fill-opacity="0.25" fill="#7689de"/></g><g stroke-opacity="1" stroke="#7689de" transform="matrix(1,0,0,1,184.6489854909528,195.41006243851925)"><path d="M141.32484298616123,-40.714543898050984C142.56744320657435,-13.405646243232816,128.39545554083753,38.94778595606512,96.8452568049448,63.885669269900134C65.29505806905208,88.82355258373515,-18.86638637244417,119.9607848791065,-47.976349429195096,108.9127559849591C-77.08631248594602,97.86472709081171,-79.57240444724604,28.4347959463454,-77.81452153556079,-2.402504094984245C-76.05663862387553,-33.23980413631389,-65.29641479542137,-59.850175502347994,-37.429051959083566,-76.11104426301877C-9.561689122745761,-92.37191302368954,59.59733965825856,-105.8671333865035,89.38965548246603,-99.96771665900887C119.18197130667349,-94.06829993151425,140.0822427657481,-68.02344155286914,141.32484298616123,-40.714543898050984C142.56744320657435,-13.405646243232816,128.39545554083753,38.94778595606512,96.8452568049448,63.885669269900134" fill-opacity="0.25" fill="#7689de"/></g><g stroke-opacity="1" stroke="#7689de" transform="matrix(1,0,0,1,162.18164660577025,340.3006119947111)"><path d="M69.69922913890473,-10.038405202310521C71.72293168463641,22.710995210793172,83.65225307175946,93.14386785179069,60.13338401240677,108.91240094189645C36.61451495305408,124.68093403200221,-45.115712881810296,104.53307597829911,-71.41398521721142,84.57279333832409C-97.71225755261254,64.61251069834907,-104.97828871157557,14.402488534522412,-97.65625,-10.849294897953705C-90.33421128842443,-36.10107833042982,-51.75632273742747,-54.148789483403945,-27.48175294775801,-66.93790725653261C-3.207183158088558,-79.72702502966128,31.794338390239602,-97.06725187909605,47.991168738016725,-87.5840015367257C64.18799908579385,-78.10075119435534,67.67552659317305,-42.787805615414214,69.69922913890473,-10.038405202310521C71.72293168463641,22.710995210793172,83.65225307175946,93.14386785179069,60.13338401240677,108.91240094189645" fill-opacity="0.25" fill="#7689de"/></g><g stroke-opacity="1" stroke="#7689de" transform="matrix(1,0,0,1,190.49920164236673,437.369186731894)"><path d="M146.3809460567535,44.72442337970177C138.9046035935173,75.06219626163127,40.04200037024952,102.22161857599387,3.460402182616589,108.86301356909759C-33.12119600501634,115.5044085622013,-57.979186454412975,110.22165485617278,-73.1086430690441,84.57279333832409C-88.23809968367524,58.9239318204754,-88.18943338183529,-16.839224425219825,-87.3163375051702,-45.03015553799452C-86.4432416285051,-73.22108665076921,-90.47586688692088,-79.88388197424324,-67.87006780905355,-84.57279333832406C-45.26426873118622,-89.26170470240488,12.609954651065976,-94.71315984215046,48.318456962033814,-73.16362372247949C84.02695927300165,-51.61408760280851,153.85728851998968,14.386650497772258,146.3809460567535,44.72442337970177C138.9046035935173,75.06219626163127,40.04200037024952,102.22161857599387,3.460402182616589,108.86301356909759" fill-opacity="0.25" fill="#7689de"/></g><g stroke-opacity="1" stroke="#7689de" transform="matrix(1,0,0,1,276.74688209140726,55.07426388506382)"><path d="M133.36681683276822,-20.208392578258522C138.42462362709588,6.139476552811146,97.36764333194898,79.35290809143169,64.0828038205071,101.45899317860602C30.797964309065215,123.56507826578036,-36.357073695473176,130.9293455025287,-66.34222023588305,112.42811794478746C-96.32736677629292,93.92689038704623,-117.06330827437975,22.018861913722688,-115.82807542195212,-9.54837216784135C-114.59284256952449,-41.11560624940539,-83.85816286739949,-69.12864497126833,-58.930823121317275,-76.97528654459677C-34.003483375235064,-84.82192811792521,1.6863563955268503,-66.08937060220168,33.7359630545411,-56.62822160781198C65.78556971355536,-47.16707261342227,128.30901003844056,-46.55626170932819,133.36681683276822,-20.208392578258522C138.42462362709588,6.139476552811146,97.36764333194898,79.35290809143169,64.0828038205071,101.45899317860602" fill-opacity="0.25" fill="#7689de"/></g><g stroke-opacity="1" stroke="#7689de" transform="matrix(1,0,0,1,279.8441701377626,180.16590301283492)"><path d="M85.61653007762487,-2.1316282072803006e-14C83.70517009690126,21.391265260137185,71.58240121413132,22.275082016214274,45.17115213302447,43.98429785499557C18.759903051917625,65.69351369377686,-49.71258524946232,134.1017527056659,-72.8509644090162,130.25529503268774C-95.98934356857008,126.40883735970961,-97.66292939246819,60.04192144816931,-93.65912282429883,20.905551817126764C-89.65531625612948,-18.230817813915785,-73.87786414027754,-87.01811516640846,-48.82812500000004,-104.56292275356753C-23.778385859722544,-122.1077303407266,34.23186950442867,-101.79044749808894,56.63931201736616,-84.36329370582769C79.04675453030364,-66.93613991356644,87.52789005834849,-21.391265260137228,85.61653007762487,-2.1316282072803006e-14C83.70517009690126,21.391265260137185,71.58240121413132,22.275082016214274,45.17115213302447,43.98429785499557" fill-opacity="0.25" fill="#7689de"/></g><g stroke-opacity="1" stroke="#7689de" transform="matrix(1,0,0,1,261.0803876351247,334.2359932612836)"><path d="M143.34866043232734,23.412770346839373C137.0280162814878,41.70813381318479,59.83333534040344,57.64922850726305,24.46149403130719,67.9575272566934C-10.910347277789057,78.26582600612375,-55.898309595595656,95.13258435262298,-68.88238742225016,85.26256284342148C-81.86646524890466,75.39254133421997,-56.767440485215204,33.583167092267146,-53.44297292861984,8.737398201484332C-50.11850537202447,-16.108370689298486,-68.24030406017201,-55.386708544131515,-48.935582082677946,-63.81205050127542C-29.630860105183892,-72.23739245841934,30.337985183843614,-56.35212368273158,62.385358936344495,-41.814653541379116C94.43273268884538,-27.27718340002665,149.66930458316688,5.117406880493956,143.34866043232734,23.412770346839373C137.0280162814878,41.70813381318479,59.83333534040344,57.64922850726305,24.46149403130719,67.9575272566934" fill-opacity="0.25" fill="#7689de"/></g><g stroke-opacity="1" stroke="#7689de" transform="matrix(1,0,0,1,253.4486175237946,469.5104146078131)"><path d="M112.66506100417209,20.297452531462447C111.5801291361517,41.168680989139716,90.54034862406762,50.77865715404507,63.62481762337227,61.49121395518868C36.70928662267693,72.20377075633229,-18.34418630889041,91.76377778789892,-48.82812499999997,84.57279333832409C-79.31206369110953,77.38180888874926,-123.2349571456536,43.50321909853871,-119.27881452328509,18.345307257739705C-115.32267190091659,-6.812604583059301,-56.66013982491893,-52.69443369836751,-25.09126926578898,-66.37467770646995C6.4776012933409675,-80.05492171457239,47.17502045316775,-78.18151183053033,70.1344088314946,-63.73615679087493C93.09379720982145,-49.290801751219526,113.74999287219248,-0.5737759262148181,112.66506100417209,20.297452531462447C111.5801291361517,41.168680989139716,90.54034862406762,50.77865715404507,63.62481762337227,61.49121395518868" fill-opacity="0.25" fill="#7689de"/></g><g stroke-opacity="1" stroke="#7689de" transform="matrix(1,0,0,1,390.0903707012342,38.361277086531814)"><path d="M83.60029716226828,33.35064634388933C79.36174881145553,56.1105146115506,74.33633286580138,65.05816813705607,52.20706276399447,66.49053528159517C30.077792662187562,67.92290242613427,-25.014481306542837,59.95499775881624,-49.17532344857318,41.94484921112395C-73.33616559060353,23.934700663431663,-93.20893665937682,-17.234355666584595,-92.7579900881876,-41.57035600455856C-92.30704351699838,-65.90635634253253,-74.86903451428094,-99.32143309675087,-46.469644021437844,-104.07115281671985C-18.07025352859475,-108.82087253668882,55.960029338253264,-92.9723075178073,77.63835286887095,-70.06867432437244C99.31667639948864,-47.16504113093758,87.83884551308103,10.590778076228059,83.60029716226828,33.35064634388933C79.36174881145553,56.1105146115506,74.33633286580138,65.05816813705607,52.20706276399447,66.49053528159517" fill-opacity="0.25" fill="#7689de"/></g><g stroke-opacity="1" stroke="#7689de" transform="matrix(1,0,0,1,406.4735057027192,195.56983681646219)"><path d="M116.06057296354022,17.014158710750216C110.61195540987546,39.517516460814875,61.89690133383504,60.072779337509644,38.306797474964874,67.27232634920767C14.716693616094709,74.4718733609057,-6.221813598650495,67.81574223691119,-25.480050189680767,60.21144078093839C-44.738286780711036,52.60713932496559,-77.41093762146986,42.00678386662536,-77.24262207121677,21.646517613370847C-77.07430652096369,1.2862513601163315,-49.17701103285731,-47.051100444496846,-24.47015688816228,-61.9501567385887C0.2366972565327501,-76.84921303268055,47.57671448833632,-80.90853939273678,70.9985027969534,-67.74782015118029C94.42029110557048,-54.58710090962381,121.50919051720498,-5.489199039314446,116.06057296354022,17.014158710750216C110.61195540987546,39.517516460814875,61.89690133383504,60.072779337509644,38.306797474964874,67.27232634920767" fill-opacity="0.25" fill="#7689de"/></g><g stroke-opacity="1" stroke="#7689de" transform="matrix(1,0,0,1,403.92505573519037,296.9200515851203)"><path d="M91.47020004587509,4.824046040549668C89.27798454891905,29.029573165412888,47.86234952023523,52.0242644452144,24.479295345922715,68.55540852196883C1.096241171610206,85.08655259872326,-27.027881175784227,115.43681192140441,-48.82812499999997,104.01091050107628C-70.62836882421571,92.58500908074815,-104.1126271291123,35.46993396684316,-106.32216759937177,1.4210854715202004e-14C-108.53170806963124,-35.46993396684313,-86.07782714272857,-96.02906759544749,-62.08536782155679,-108.80869329998256C-38.09290850038501,-121.58831900451764,12.039993683086944,-95.6165441172992,37.63258832765892,-76.6777542272105C63.2251829722309,-57.7389643371218,93.66241554283113,-19.381481084313553,91.47020004587509,4.824046040549668C89.27798454891905,29.029573165412888,47.86234952023523,52.0242644452144,24.479295345922715,68.55540852196883" fill-opacity="0.25" fill="#7689de"/></g><g stroke-opacity="1" stroke="#7689de" transform="matrix(1,0,0,1,413.40156437775744,471.1450268815127)"><path d="M82.08482849032049,-11.56625015159701C83.3314529480584,12.787760431402809,79.82229266977913,45.759128771954245,58.00346708805905,61.551270008342144C36.18464150633897,77.34341124473005,-29.935091791493154,90.48241250879272,-48.82812499999997,83.18659726673039C-67.7211582085068,75.89078202466806,-59.36720697521988,45.61234900146836,-55.35473216298185,17.776378555968137C-51.342257350743814,-10.059591889532086,-42.39968487734069,-66.77103006533346,-24.75327612657179,-83.82922540627095C-7.106867375802889,-100.88742074720844,32.71736957214952,-96.6166226987691,50.52372034163157,-84.57279348965679C68.33007111111361,-72.52896428054447,80.83820403258258,-35.92026073459683,82.08482849032049,-11.56625015159701C83.3314529480584,12.787760431402809,79.82229266977913,45.759128771954245,58.00346708805905,61.551270008342144" fill-opacity="0.25" fill="#7689de"/></g><g stroke-opacity="1" stroke="#7689de" transform="matrix(1,0,0,1,494.448032304556,89.19690365159767)"><path d="M97.65625,-21.806146161594118C100.91767667629968,12.518473996426298,75.6540997551092,84.9645891794717,48.82982902642563,100.34597967328052C22.005558297742056,115.72737016708935,-45.44648166372063,91.08943893306747,-63.28937437210143,70.48219680125885C-81.13226708048222,49.87495466945023,-57.26027449549518,5.953885284594659,-58.22752722385914,-23.29747311757115C-59.1947799522231,-52.548831519736964,-83.6743567743663,-91.30857558552421,-69.09289074228518,-105.02595361173601C-54.511424710204054,-118.74333163794782,1.4697455115800544,-119.47170918319893,29.261268968627586,-105.60174127484194C57.05279242567512,-91.73177336648496,94.39482332370032,-56.13076631961454,97.65625,-21.806146161594118C100.91767667629968,12.518473996426298,75.6540997551092,84.9645891794717,48.82982902642563,100.34597967328052" fill-opacity="0.25" fill="#7689de"/></g><g stroke-opacity="1" stroke="#7689de" transform="matrix(1,0,0,1,518.2403529064034,190.79675411182652)"><path d="M120.49845503799463,-0.00014046411300938644C121.42710223960555,38.08138512438375,95.43295439952477,101.53231148544194,69.1606208191186,122.87360601586333C42.88828723871244,144.21490054628472,-9.300725978321523,148.0373365179513,-37.13554644444237,128.04762671841536C-64.97036691056321,108.05791691887941,-88.17005901155987,40.81120486874932,-97.84830197760648,2.935347218647678C-107.5265449436531,-34.940510431453966,-122.11117750523198,-81.1157033932337,-95.20500424072205,-99.20751918219452C-68.29883097621212,-117.29933497115533,27.63816106300031,-122.15011063479747,63.58873760945309,-105.61554751511721C99.53931415590587,-89.08098439543696,119.56980783638372,-38.08166605260977,120.49845503799463,-0.00014046411300938644C121.42710223960555,38.08138512438375,95.43295439952477,101.53231148544194,69.1606208191186,122.87360601586333" fill-opacity="0.25" fill="#7689de"/></g><g stroke-opacity="1" stroke="#7689de" transform="matrix(1,0,0,1,525.3189118109943,314.8357557208127)"><path d="M103.42546855840664,-5.495117813492037C112.22689362650561,15.344646390449306,82.96546067203562,66.30510840452382,56.465093727156216,79.55487845399432C29.96472678227681,92.80464850346482,-30.02320083869614,81.42154857681129,-55.57673311086981,74.00350248333098C-81.13026538304348,66.58545638985066,-97.96608652335927,59.010644109192285,-96.85609990588578,35.046601893112395C-95.7461132884123,11.082559677032506,-65.66892061010361,-56.35903270268734,-48.916813406028915,-69.78075081314836C-32.16470620195422,-83.20246892360939,-21.733837008843548,-56.19797893626312,3.656543318562379,-45.483706769653736C29.046923645968302,-34.76943460304435,94.62404349030766,-26.33488201743338,103.42546855840664,-5.495117813492037C112.22689362650561,15.344646390449306,82.96546067203562,66.30510840452382,56.465093727156216,79.55487845399432" fill-opacity="0.25" fill="#7689de"/></g><g stroke-opacity="1" stroke="#7689de" transform="matrix(1,0,0,1,486.4937161329261,463.61179440373377)"><path d="M97.65625,-2.7875236787125957C93.31121859982326,18.817610907194346,63.3545199914754,42.77788812878292,46.140678583830436,60.56162480396526C28.92683717618547,78.3453614791476,21.20645448379355,114.0843951156031,-5.626798445869795,103.91489637238146C-32.46005137553314,93.74539762915983,-102.73229100416907,34.588217471023725,-114.85883899414964,-0.45536765536459C-126.9853869841302,-35.498952781752905,-109.56437071559326,-94.91097854326311,-78.38608638575317,-106.34661438594841C-47.20780205591309,-117.78225022863371,42.8704775872653,-86.32903116268237,72.21086698489083,-69.0691827114764C101.55125638251636,-51.80933426027043,102.00128140017674,-24.392658264619538,97.65625,-2.7875236787125957C93.31121859982326,18.817610907194346,63.3545199914754,42.77788812878292,46.140678583830436,60.56162480396526" fill-opacity="0.25" fill="#7689de"/></g><g stroke-opacity="1" stroke="#7689de" transform="matrix(1,0,0,1,643.0516782909349,86.8814797098924)"><path d="M78.24860583634336,0.3726776033180741C77.09201454711173,24.452592867718472,44.15594925458516,48.78761424635343,24.583649394108342,66.73329102077714C5.011349533631524,84.67896779520086,-15.471835251778348,115.61247775573268,-39.18519332651754,108.04673824986041C-62.89855140125674,100.48099874398814,-116.08934360997569,47.12636566655284,-117.69649905432684,21.33885398554351C-119.30365449867799,-4.448657695465826,-73.69807535659531,-30.16415607766746,-48.828125992624486,-46.67833183619558C-23.958176628653664,-63.19250759472371,10.343741824670118,-85.58803547221083,31.52319712949809,-77.74620056562523C52.70265243432606,-69.90436565903963,79.40519712557499,-23.707237661082324,78.24860583634336,0.3726776033180741C77.09201454711173,24.452592867718472,44.15594925458516,48.78761424635343,24.583649394108342,66.73329102077714" fill-opacity="0.25" fill="#7689de"/></g><g stroke-opacity="1" stroke="#7689de" transform="matrix(1,0,0,1,620.4603425263292,208.43387251914592)"><path d="M85.94834334193345,-24.35556921002616C92.67283003881535,-0.0778536373400378,94.55258620376046,57.294041429837065,72.85140519261809,78.84809396373244C51.15022418147572,100.40214649762781,-11.005116891624326,118.11009498730145,-44.25874272492072,104.96874599334605C-77.51236855821712,91.82739699939064,-122.33751841857139,28.23461988686194,-126.67034980716029,1.4210854715202004e-14C-131.0031811957492,-28.23461988686191,-96.7848701928686,-53.3026067490948,-70.2557310564541,-64.43897332782552C-43.726591920039596,-75.57533990655625,6.470472611595472,-73.49876682535088,32.50448501132673,-66.81819947238432C58.53849741105799,-60.13763211941776,79.22385664505155,-48.63328478271228,85.94834334193345,-24.35556921002616C92.67283003881535,-0.0778536373400378,94.55258620376046,57.294041429837065,72.85140519261809,78.84809396373244" fill-opacity="0.25" fill="#7689de"/></g><g stroke-opacity="1" stroke="#7689de" transform="matrix(1,0,0,1,640.7415290692734,298.0833001467593)"><path d="M121.98576248885418,24.362514945240456C133.0580234498228,53.71572486474305,100.78761964511203,98.86522711501672,70.2075290831435,108.93529218156564C39.627438521174966,119.00535724811456,-36.6859291096612,106.86213029457348,-61.49478088295699,84.78290534453402C-86.30363265625277,62.703680394494555,-87.44858843087607,1.220446684450792,-78.64558155663121,-23.540057518671134C-69.84257468238636,-48.30056172179306,-22.413330449815014,-56.5061349047344,-8.676739637487842,-63.78011987419754C5.059851174839331,-71.05410484366067,-18.003120370391855,-81.87440647202294,3.773963317331816,-67.18396733544994C25.551047005055487,-52.49352819887694,110.91350152788556,-4.990694974262137,121.98576248885418,24.362514945240456C133.0580234498228,53.71572486474305,100.78761964511203,98.86522711501672,70.2075290831435,108.93529218156564" fill-opacity="0.25" fill="#7689de"/></g><g stroke-opacity="1" stroke="#7689de" transform="matrix(1,0,0,1,618.4510312526608,455.3908432336002)"><path d="M106.38024185845546,-10.772841346516863C100.3107021075933,20.984579875707237,63.895892181914235,75.95271989661393,35.25670998515496,84.57279333832406C6.617527788395694,93.1928667800342,-46.35081867170314,51.01601007391079,-65.45485132210015,40.94759930374397C-84.55888397249717,30.87918853357715,-82.13505007396121,48.535146768262976,-79.36748591722711,24.162328717323135C-76.59992176049302,-0.21048933361670663,-74.02303878295476,-83.6002985498378,-48.849466381695585,-105.28930900189508C-23.675893980436406,-126.97831945395235,45.802330450302804,-121.72447860425027,71.67394849032797,-105.97173399502056C97.54556653035314,-90.21898938579085,112.44978160931763,-42.530262568740966,106.38024185845546,-10.772841346516863C100.3107021075933,20.984579875707237,63.895892181914235,75.95271989661393,35.25670998515496,84.57279333832406" fill-opacity="0.25" fill="#7689de"/></g><g stroke-opacity="1" stroke="#7689de" transform="matrix(1,0,0,1,704.208340714057,65.06553621891402)"><path d="M115.24996129428861,20.646393092905136C105.64341348448268,50.27851980443538,54.91806784822988,84.94152872589831,24.725082106146715,98.84386929230224C-5.467903635936455,112.74620985870618,-44.92142302650835,124.55613666378174,-65.9079531582104,104.06043649132872C-86.89448328991246,83.56473631887569,-103.32113418889173,3.476134247687771,-101.19409868406558,-24.130331742415898C-99.06706317923943,-51.73679773251956,-83.73881807076148,-52.44193291021607,-53.145740129253504,-61.57835944929329C-22.552662187745522,-70.71478598837051,54.29841872772529,-92.65301640057898,82.3643689649823,-78.94889097687924C110.43031920223932,-65.2447655531795,124.85650910409454,-8.985733618625112,115.24996129428861,20.646393092905136C105.64341348448268,50.27851980443538,54.91806784822988,84.94152872589831,24.725082106146715,98.84386929230224" fill-opacity="0.25" fill="#7689de"/></g><g stroke-opacity="1" stroke="#7689de" transform="matrix(1,0,0,1,722.2017715001796,186.43025480594991)"><path d="M98.87014586727486,-24.12741762937526C96.17504917304885,1.1886040432179499,57.273923312523046,66.24264012826802,32.65754483464391,84.89497579996808C8.04116635676477,103.54731147166814,-26.891169852633897,98.69522218844187,-48.82812499999997,87.78659640082512C-70.76508014736605,76.87797061320836,-95.4594631736188,44.97724790728766,-98.96418604955254,19.44322107426754C-102.46890892548628,-6.090805758752584,-94.48851409719444,-51.01016871231917,-69.85646225560237,-65.41756459729562C-45.22441041401029,-79.82496048227208,20.707023646187064,-73.88284539691124,48.828124999999936,-67.00115423559117C76.9492263538128,-60.11946307427111,101.56524256150087,-49.44343930196847,98.87014586727486,-24.12741762937526C96.17504917304885,1.1886040432179499,57.273923312523046,66.24264012826802,32.65754483464391,84.89497579996808" fill-opacity="0.25" fill="#7689de"/></g><g stroke-opacity="1" stroke="#7689de" transform="matrix(1,0,0,1,719.782169581682,315.7967626573498)"><path d="M102.72011751881945,-12.629473473425413C98.51332808504726,19.24877303513994,66.84183342252368,108.43954929391684,38.01007405511314,128.67950292603814C9.178314687702596,148.91945655815942,-44.3102557869977,130.22234693343776,-70.27043868564378,108.81024831930239C-96.23062158428986,87.398149705167,-118.62167323385529,29.05852695807445,-117.75102333676337,0.20691124122585336C-116.88037343967144,-28.644704475622742,-95.21351163551051,-53.8332980873592,-65.04653930309225,-64.29944598178918C-34.87956697067398,-74.76559387621914,35.28970118742765,-71.20163821008127,63.25081065774627,-62.58997612535397C91.21192012806489,-53.97831404062668,106.92690695259164,-44.50771998199077,102.72011751881945,-12.629473473425413C98.51332808504726,19.24877303513994,66.84183342252368,108.43954929391684,38.01007405511314,128.67950292603814" fill-opacity="0.25" fill="#7689de"/></g><g stroke-opacity="1" stroke="#7689de" transform="matrix(1,0,0,1,747.506272364044,424.78607473949774)"><path d="M94.14902121774509,24.351179716447724C91.81263276263694,62.995882489102755,55.4151125068322,98.8818258295154,27.585165114417947,108.91876143316146C-0.24478227799631114,118.95569703680752,-47.90305091875264,110.22572956397148,-72.83066313674047,84.57279333832409C-97.7582753547283,58.919857112676695,-128.34602346139792,-13.782939608821298,-121.980508193509,-44.99885592072294C-115.61499292562007,-76.21477223262458,-61.901572202502905,-89.73093798607813,-34.637571529406934,-102.72270453308576C-7.373570856310966,-115.71447108009339,20.13906372054149,-144.1284359110243,41.603495845066824,-122.94945520276872C63.06792796959216,-101.77047449451314,96.48540967285324,-14.293523056207306,94.14902121774509,24.351179716447724C91.81263276263694,62.995882489102755,55.4151125068322,98.8818258295154,27.585165114417947,108.91876143316146" fill-opacity="0.25" fill="#7689de"/></g><g stroke-opacity="1" stroke="#7689de" transform="matrix(1,0,0,1,835.0166078370289,44.44084142415304)"><path d="M87.71741181998676,-14.113260805594408C82.11982691054632,20.459990774763916,73.04542989794754,81.93501273696089,48.82811731210986,98.92797151944986C24.610804726272175,115.92093030193882,-37.52384642151989,101.91446484837797,-57.58646369503933,87.8444918893394C-77.64908096855876,73.77451893030081,-70.4357038647405,41.68122831611454,-71.54758632900672,14.508133765218396C-72.65946879327294,-12.664960785677746,-89.91796066359653,-54.69079679471771,-64.25775848063665,-75.19407541603746C-38.597556297676775,-95.69735403735721,57.084431718648645,-118.6916737311073,82.41362676875255,-108.51153796270012C107.74282181885646,-98.33140219429293,93.31499672942721,-48.68651238595273,87.71741181998676,-14.113260805594408C82.11982691054632,20.459990774763916,73.04542989794754,81.93501273696089,48.82811731210986,98.92797151944986" fill-opacity="0.25" fill="#7689de"/></g><g stroke-opacity="1" stroke="#7689de" transform="matrix(1,0,0,1,823.1512521062798,217.63905016047218)"><path d="M111.72721160203074,-0.1785302151978314C117.52818712227395,36.32524492640809,90.16311961523023,84.80057920958849,61.50113472643978,95.66345711158951C32.83914983764933,106.52633501359053,-37.75589721873057,73.68749901028376,-60.24469773071199,64.99873719680829C-82.73349824269341,56.30997538333283,-81.05422686329166,70.78304590982275,-73.43166834544876,43.53088623073671C-65.80910982760585,16.27872655165068,-31.197171615392758,-70.69920754957744,-14.509346623654551,-98.5142208777079C2.178478368083656,-126.32923420583836,5.655855234032948,-139.74847551513102,26.695281604980497,-123.35919373804602C47.734707975928046,-106.969911960961,105.92623608178752,-36.68230535680375,111.72721160203074,-0.1785302151978314C117.52818712227395,36.32524492640809,90.16311961523023,84.80057920958849,61.50113472643978,95.66345711158951" fill-opacity="0.25" fill="#7689de"/></g><g stroke-opacity="1" stroke="#7689de" transform="matrix(1,0,0,1,858.7122100928609,288.7779713386921)"><path d="M48.93631694683589,-0.10880915133464697C52.98061366268331,30.96436747597016,50.36223651936801,86.05650512510952,30.834403245409923,101.86626642550473C11.30656997145184,117.67602772589994,-44.14416376301375,115.78317220226255,-68.23068269691261,94.74975865103661C-92.31720163081147,73.71634509981068,-114.4998065063505,7.512998212369013,-113.68471035798326,-24.33421488185084C-112.86961420961603,-56.181427976070694,-83.38232802476062,-86.29375683820362,-63.340105806709175,-96.3335199142825C-43.29788358865773,-106.37328299036139,-12.144114175265456,-100.61024513214876,6.5686229503253895,-84.57279333832412C25.281360075916233,-68.53534154449947,44.892020230988464,-31.181985778639454,48.93631694683589,-0.10880915133464697C52.98061366268331,30.96436747597016,50.36223651936801,86.05650512510952,30.834403245409923,101.86626642550473" fill-opacity="0.25" fill="#7689de"/></g><g stroke-opacity="1" stroke="#7689de" transform="matrix(1,0,0,1,868.2260199405047,426.9831315728164)"><path d="M99.6085975921194,2.1989295030297313C100.16434051693665,24.69550420982363,97.90143728190824,59.383420127970766,69.11568806350223,66.59258127786607C40.32993884509622,73.80174242776138,-49.54098635363586,59.857671116440926,-73.10589771831665,45.453896402401575C-96.67080908299745,31.050121688362225,-80.8771951927037,-3.9317594403672853,-72.27378012458252,-19.830067006370033C-63.670365056461335,-35.72837457237278,-44.49457574945313,-41.84314900086035,-21.48540730958959,-49.9359489936149C1.5237611302739538,-58.02874898636945,45.598896364313916,-77.07601337900475,65.78123051459875,-68.38686696289732C85.96356466488358,-59.697720546789874,99.05285466730214,-20.297645203764166,99.6085975921194,2.1989295030297313C100.16434051693665,24.69550420982363,97.90143728190824,59.383420127970766,69.11568806350223,66.59258127786607" fill-opacity="0.25" fill="#7689de"/></g></svg>